<svg xmlns="http://www.w3.org/2000/svg"
shape-rendering="geometricPrecision"
width="4000" height="4000" viewBox="0 0 1024 1024">
  <metadata>null</metadata>

<path d="
M 345.474 470.114
C 345.9 468.489 345.788 466.707 346.019 465.043
C 346.5 461.569 347.102 458.094 347.885 454.675
C 350.247 444.35 354.194 434.208 359.464 425.019
C 375.449 397.147 404.206 376.644 435.999 371.452
C 446.991 369.657 458.403 370.316 469.501 370.302
C 486.834 370.281 504.167 370.271 521.499 370.267
C 534.666 370.264 547.832 370.238 560.999 370.251
C 570.49 370.26 580.07 369.962 589.461 371.603
C 602.535 373.889 615.069 379.083 626.43 385.843
C 669.76 411.625 689.117 466.907 673.566 514.369
C 670.035 525.144 664.667 535.892 657.766 544.908
C 652.515 551.767 646.346 557.644 640.114 563.574
C 639.393 564.877 639.923 567.701 639.93 569.218
C 639.951 573.646 640.002 578.076 640.049 582.501
C 640.218 598.333 640.132 614.175 640.117 630.008
C 640.113 634.491 640.097 638.975 640.131 643.457
C 640.148 645.689 640.5 648.254 639.068 650.147
C 637.441 652.298 634.383 653.446 631.784 652.386
C 629.734 651.55 628.048 649.567 626.417 648.135
C 623.45 645.532 620.445 642.976 617.495 640.352
C 604.252 628.573 590.792 617.031 577.375 605.45
C 571.72 600.569 566.462 594.98 560.587 590.389
C 559.058 589.712 556.92 590.011 555.272 590.009
C 551.35 590.003 547.429 590.016 543.507 590.02
C 530.008 590.033 516.508 590.04 503.008 590.02
C 490.008 590.001 477.008 590.027 464.008 590.028
C 454.885 590.029 445.639 590.439 436.605 588.931
C 410.237 584.528 386.337 570.478 369.396 549.846
C 361.399 540.107 355.893 528.916 351.304 517.278
C 347.066 506.528 345.414 494.491 345.165 483.007
C 345.073 478.745 344.977 474.355 345.474 470.114 Z
M 400.959 474.099
C 400.046 481.468 400.678 489.315 403.405 496.262
C 412.28 518.87 439.22 529.48 461.399 520.055
C 466.714 517.796 471.53 514.108 475.432 509.897
C 478.381 506.716 481.131 502.972 482.802 498.95
C 484.49 494.889 486.088 490.864 486.576 486.444
C 487.378 479.17 486.769 471.772 484.047 464.931
C 476.634 446.304 456.668 434.835 436.818 438.114
C 428.58 439.476 421.376 443.003 414.846 448.148
C 411.18 451.036 408.256 455.192 405.915 459.185
C 403.286 463.669 401.598 468.944 400.959 474.099 Z
M 532.469 476.109
C 531.966 482.771 532.856 489.163 535.045 495.462
C 536.686 500.183 539.42 504.511 542.592 508.343
C 545.708 512.107 549.704 515.268 553.917 517.713
C 575.708 530.362 604.091 521.472 615.125 499.021
C 617.404 494.385 618.667 489.109 619.086 483.971
C 619.561 478.138 618.685 471.908 616.686 466.414
C 614.954 461.657 612.48 457.103 609.202 453.23
C 596.916 438.712 577.106 434.027 559.472 440.75
C 554.635 442.594 550.265 445.551 546.377 448.923
C 542.155 452.584 538.668 457.229 536.394 462.345
C 534.449 466.721 532.833 471.293 532.469 476.109 Z"
opacity="1" fill="rgb(254,254,254)" fill-rule="evenodd" />
<path d="
M 418.955 476.096
C 419.456 472.95 420.596 469.826 422.348 467.161
C 431.738 452.876 453.532 451.664 463.877 465.633
C 465.513 467.843 466.776 470.288 467.586 472.918
C 468.772 476.768 468.993 480.973 468.384 484.952
C 467.95 487.785 466.88 490.717 465.439 493.19
C 456.474 508.586 433.605 509.653 423.229 495.236
C 421.611 492.989 420.433 490.597 419.686 487.924
C 418.623 484.119 418.333 479.999 418.955 476.096 Z"
opacity="1" fill="rgb(254,254,254)" fill-rule="evenodd" />
<path d="
M 550.919 476.601
C 551.274 474.019 552.144 471.485 553.292 469.15
C 561.453 452.549 585.693 451.157 596.402 465.779
C 598.058 468.04 599.498 470.672 600.22 473.394
C 601.118 476.777 601.513 480.498 601.064 483.982
C 599.647 494.979 590.805 503.933 579.799 505.506
C 575.539 506.115 571.477 505.511 567.403 504.258
C 563.894 503.179 560.489 501.327 557.912 498.671
C 554.979 495.647 552.894 491.908 551.708 487.876
C 550.641 484.253 550.406 480.332 550.919 476.601 Z"
opacity="1" fill="rgb(254,254,255)" fill-rule="evenodd" />

</svg>